# xmcd
#
# Track frame offsets: 
#        150
#        22721
#        47819
#        84872
#        105009
#        138309
#        166184
#        194662
#        226169
#        261266
#
# Disc length: 3679 seconds
#
# Revision: 1
# Processed by: cddbd v1.5.2PL0 Copyright (c) Steve Scherf et al.
# Submitted via: ExactAudioCopy v0.99pb3
#
DISCID=6d0e5d0a
DTITLE=Scott O'Dell - Island of the Blue Dolphin - Disc 1 of 4
DYEAR=1960
DGENRE=Audiobook
TTITLE0=Disc 1.A
TTITLE1=Disc 1.B
TTITLE2=Disc 1.C
TTITLE3=Disc 1.D
TTITLE4=Disc 1.E
TTITLE5=Disc 1.F
TTITLE6=Disc 1.G
TTITLE7=Disc 1.H
TTITLE8=Disc 1.I
TTITLE9=Disc 1.J
EXTD=Island of the Blue Dolphins by Scott O'Dell\nread by Tantoo Cardi
EXTD=nal 4 CDs 
EXTT0=
EXTT1=
EXTT2=
EXTT3=
EXTT4=
EXTT5=
EXTT6=
EXTT7=
EXTT8=
EXTT9=
PLAYORDER=
